<?xml version="1.0" standalone="no"?>
<!DOCTYPE svg PUBLIC "-//W3C//DTD SVG 20010904//EN"
 "http://www.w3.org/TR/2001/REC-SVG-20010904/DTD/svg10.dtd">
<svg version="1.0" xmlns="http://www.w3.org/2000/svg"
 width="690.000000pt" height="690.000000pt" viewBox="0 0 690.000000 690.000000"
 preserveAspectRatio="xMidYMid meet">
<metadata>
Created by potrace 1.14, written by Peter Selinger 2001-2017
</metadata>
<g transform="translate(0.000000,690.000000) scale(0.100000,-0.100000)"
fill="#000000" stroke="none">
<path d="M0 3450 l0 -3450 3450 0 3450 0 0 3450 0 3450 -3450 0 -3450 0 0
-3450z m2050 1536 c0 -8 -641 -3041 -646 -3058 -5 -16 -23 -18 -195 -18 -111
0 -189 4 -189 9 0 12 639 3041 645 3059 3 9 51 12 195 12 104 0 190 -2 190 -4z
m1024 -58 c-196 -935 -636 -3014 -638 -3016 -2 -1 -89 -1 -193 0 l-190 3 323
1530 c178 842 324 1533 324 1538 0 4 87 7 194 7 l194 0 -14 -62z m1258 -572
c179 -38 295 -142 374 -335 10 -23 12 -21 40 35 109 218 386 347 651 304 240
-38 413 -198 468 -434 12 -50 15 -183 15 -738 l0 -678 -210 0 -209 0 -3 623
c-4 679 -3 670 -63 757 -79 114 -279 154 -420 86 -69 -34 -136 -107 -166 -182
l-24 -59 -3 -612 -3 -613 -204 0 -204 0 -3 628 c-3 623 -3 627 -25 682 -27 67
-89 130 -158 162 -72 33 -220 33 -285 -1 -102 -53 -159 -119 -192 -223 -17
-55 -18 -104 -18 -654 l0 -594 -215 0 -215 0 0 910 0 910 215 0 214 0 3 -147
c3 -131 4 -145 16 -119 7 17 33 58 57 92 119 166 346 246 567 200z"/>
</g>
</svg>
